<svg width="43.8984375px" height="12.1933594px" viewBox="0 0 43.8984375 12.1933594" version="1.1"
  xmlns="http://www.w3.org/2000/svg">
  <g id="group" stroke="none" stroke-width="1" fill="none" fill-rule="evenodd">
    <g id="DingFlow" fill="#FFFFFF" fill-rule="nonzero">
      <path d="M0,9.31054688 L1.81054687,0.744140625 L3.77929687,0.744140625 C4.69726562,0.744140625 5.39453125,0.986328125 5.87109375,1.47070312 C6.34765625,1.95507812 6.5859375,2.62109375 6.5859375,3.46875 C6.5859375,4.00390625 6.53222656,4.546875 6.42480469,5.09765625 C6.31738281,5.6484375 6.15136719,6.17480469 5.92675781,6.67675781 C5.70214844,7.17871094 5.41601562,7.62792969 5.06835938,8.02441406 C4.72070312,8.42089844 4.30859375,8.734375 3.83203125,8.96484375 C3.35546875,9.1953125 2.81054688,9.31054688 2.19726562,9.31054688 L0,9.31054688 Z M2.37304688,7.53515625 L2.49609375,7.53515625 C2.78515625,7.53515625 3.04003906,7.44140625 3.26074219,7.25390625 C3.48144531,7.06640625 3.66894531,6.82226562 3.82324219,6.52148438 C3.97753906,6.22070312 4.10253906,5.89648438 4.19824219,5.54882812 C4.29394531,5.20117188 4.36425781,4.86230469 4.40917969,4.53222656 C4.45410156,4.20214844 4.4765625,3.91796875 4.4765625,3.6796875 C4.4765625,3.27734375 4.40429688,2.98144531 4.25976562,2.79199219 C4.11523438,2.60253906 3.8984375,2.5078125 3.609375,2.5078125 L3.4453125,2.5078125 L2.37304688,7.53515625 Z"></path>
      <path d="M6.42773438,9.31054688 L7.84570312,2.671875 L9.75585938,2.671875 L8.34960938,9.31054688 L6.42773438,9.31054688 Z M8.98828125,2.02734375 C8.69140625,2.02734375 8.46875,1.96679688 8.3203125,1.84570312 C8.171875,1.72460938 8.09765625,1.54101562 8.09765625,1.29492188 C8.09765625,1.09960938 8.13964844,0.90234375 8.22363281,0.703125 C8.30761719,0.50390625 8.44042969,0.336914062 8.62207031,0.202148438 C8.80371094,0.0673828125 9.03710938,0 9.32226562,0 C9.60351562,0 9.82226562,0.060546875 9.97851562,0.181640625 C10.1347656,0.302734375 10.2128906,0.486328125 10.2128906,0.732421875 C10.2128906,1.09960938 10.1005859,1.40722656 9.87597656,1.65527344 C9.65136719,1.90332031 9.35546875,2.02734375 8.98828125,2.02734375 Z"></path>
      <path d="M9.43945312,9.31054688 L10.8574219,2.671875 L12.3925781,2.671875 L12.3691406,3.4453125 L12.4042969,3.4453125 C12.5332031,3.2578125 12.6728516,3.09765625 12.8232422,2.96484375 C12.9736328,2.83203125 13.1328125,2.73046875 13.3007812,2.66015625 C13.46875,2.58984375 13.6464844,2.5546875 13.8339844,2.5546875 C14.0722656,2.5546875 14.3007812,2.6015625 14.5195312,2.6953125 C14.7382812,2.7890625 14.9189453,2.94824219 15.0615234,3.17285156 C15.2041016,3.39746094 15.2753906,3.7109375 15.2753906,4.11328125 C15.2753906,4.234375 15.2675781,4.37207031 15.2519531,4.52636719 C15.2363281,4.68066406 15.2070312,4.86328125 15.1640625,5.07421875 L14.2675781,9.31054688 L12.3457031,9.31054688 L13.125,5.61328125 C13.1601562,5.44140625 13.1914062,5.2734375 13.21875,5.109375 C13.2460938,4.9453125 13.2597656,4.81054688 13.2597656,4.70507812 C13.2597656,4.57226562 13.2363281,4.46875 13.1894531,4.39453125 C13.1425781,4.3203125 13.0644531,4.28320312 12.9550781,4.28320312 C12.8183594,4.28320312 12.6972656,4.35546875 12.5917969,4.5 C12.4863281,4.64453125 12.3935547,4.83789062 12.3134766,5.08007812 C12.2333984,5.32226562 12.1601562,5.59179688 12.09375,5.88867188 L11.3730469,9.31054688 L9.43945312,9.31054688 Z" id="路径"></path>
      <path d="M16.9804688,12.1933594 C16.1796875,12.1933594 15.5898438,12.0546875 15.2109375,11.7773438 C14.8320312,11.5 14.6425781,11.1132812 14.6425781,10.6171875 C14.6425781,10.1640625 14.7871094,9.77832031 15.0761719,9.45996094 C15.3652344,9.14160156 15.7558594,8.91210938 16.2480469,8.77148438 C16.1230469,8.71679688 16.0097656,8.61425781 15.9082031,8.46386719 C15.8066406,8.31347656 15.7558594,8.1328125 15.7558594,7.921875 C15.7558594,7.65234375 15.8417969,7.41796875 16.0136719,7.21875 C16.1855469,7.01953125 16.4003906,6.82421875 16.6582031,6.6328125 C16.5136719,6.52734375 16.3964844,6.34960938 16.3066406,6.09960938 C16.2167969,5.84960938 16.171875,5.58007812 16.171875,5.29101562 C16.171875,4.80664062 16.2861328,4.34765625 16.5146484,3.9140625 C16.7431641,3.48046875 17.078125,3.14453125 17.5195312,2.90625 C17.703125,2.8046875 17.9130859,2.72558594 18.1494141,2.66894531 C18.3857422,2.61230469 18.6230469,2.58398438 18.8613281,2.58398438 C19.1152344,2.58398438 19.3300781,2.60449219 19.5058594,2.64550781 C19.6816406,2.68652344 19.8222656,2.72265625 19.9277344,2.75390625 L22.078125,2.75390625 L21.84375,3.8671875 L21.0175781,4.15429688 C21.0332031,4.21679688 21.0449219,4.28027344 21.0527344,4.34472656 C21.0605469,4.40917969 21.0644531,4.4765625 21.0644531,4.546875 C21.0644531,4.8671875 20.9921875,5.20800781 20.8476562,5.56933594 C20.703125,5.93066406 20.515625,6.2265625 20.2851562,6.45703125 C20.046875,6.69140625 19.7617188,6.86621094 19.4296875,6.98144531 C19.0976562,7.09667969 18.7226562,7.15625 18.3046875,7.16015625 C18.1171875,7.16015625 17.9882812,7.16308594 17.9179688,7.16894531 C17.8476562,7.17480469 17.8007812,7.18164062 17.7773438,7.18945312 C17.6523438,7.23242188 17.5517578,7.30273438 17.4755859,7.40039062 C17.3994141,7.49804688 17.3613281,7.59570312 17.3613281,7.69335938 C17.3613281,7.75195312 17.4023438,7.7890625 17.484375,7.8046875 C17.5273438,7.8125 17.5859375,7.81738281 17.6601562,7.81933594 C17.734375,7.82128906 17.8242188,7.82226562 17.9296875,7.82226562 L19.1132812,7.82226562 C19.4140625,7.82226562 19.6708984,7.87402344 19.8837891,7.97753906 C20.0966797,8.08105469 20.2597656,8.234375 20.3730469,8.4375 C20.4863281,8.640625 20.5429688,8.89257812 20.5429688,9.19335938 C20.5429688,9.80664062 20.4023438,10.3291016 20.1210938,10.7607422 C19.8398438,11.1923828 19.4609375,11.5292969 18.984375,11.7714844 C18.703125,11.9082031 18.3935547,12.0126953 18.0556641,12.0849609 C17.7177734,12.1572266 17.359375,12.1933594 16.9804688,12.1933594 Z M17.0566406,10.7753906 C17.2519531,10.7753906 17.4384766,10.7578125 17.6162109,10.7226562 C17.7939453,10.6875 17.9550781,10.6328125 18.0996094,10.5585938 C18.2714844,10.4726562 18.4091797,10.3613281 18.5126953,10.2246094 C18.6162109,10.0878906 18.6679688,9.92578125 18.6679688,9.73828125 C18.6679688,9.70703125 18.6601562,9.6796875 18.6445312,9.65625 C18.6289062,9.6328125 18.6015625,9.61328125 18.5625,9.59765625 C18.515625,9.578125 18.4492188,9.56445312 18.3632812,9.55664062 C18.2773438,9.54882812 18.1640625,9.54492188 18.0234375,9.54492188 L17.1210938,9.54492188 C16.9960938,9.54492188 16.8828125,9.6015625 16.78125,9.71484375 C16.6796875,9.828125 16.5986328,9.95605469 16.5380859,10.0986328 C16.4775391,10.2412109 16.4472656,10.3613281 16.4472656,10.4589844 C16.4472656,10.5800781 16.4980469,10.6630859 16.5996094,10.7080078 C16.7011719,10.7529297 16.8535156,10.7753906 17.0566406,10.7753906 Z M18.2871094,5.84179688 C18.4160156,5.84179688 18.5332031,5.79980469 18.6386719,5.71582031 C18.7441406,5.63183594 18.8369141,5.50488281 18.9169922,5.33496094 C18.9970703,5.16503906 19.0664062,4.95507812 19.125,4.70507812 C19.1523438,4.58789062 19.1728516,4.484375 19.1865234,4.39453125 C19.2001953,4.3046875 19.2070312,4.22851562 19.2070312,4.16601562 C19.2070312,4.05664062 19.1875,3.98242188 19.1484375,3.94335938 C19.109375,3.90429688 19.0488281,3.88476562 18.9667969,3.88476562 C18.8417969,3.88476562 18.7324219,3.91992188 18.6386719,3.99023438 C18.5449219,4.06054688 18.4658203,4.15234375 18.4013672,4.265625 C18.3369141,4.37890625 18.2822266,4.50292969 18.2373047,4.63769531 C18.1923828,4.77246094 18.1542969,4.90429688 18.1230469,5.03320312 C18.0957031,5.14648438 18.0751953,5.24609375 18.0615234,5.33203125 C18.0478516,5.41796875 18.0410156,5.49414062 18.0410156,5.56054688 C18.0410156,5.74804688 18.1230469,5.84179688 18.2871094,5.84179688 Z"></path>
      <polygon points="21.4101562 9.31054688 23.2207031 0.744140625 27.0996094 0.744140625 26.7363281 2.47265625 24.8671875 2.47265625 24.46875 4.30664062 26.1972656 4.30664062 25.8222656 6.03515625 24.0996094 6.03515625 23.4140625 9.31054688"></polygon>
      <polygon points="26.1972656 9.31054688 28.1425781 0.193359375 30.0644531 0.193359375 28.1308594 9.31054688"></polygon>
      <path d="M31.6699219,9.42773438 C31.2324219,9.42773438 30.8564453,9.3359375 30.5419922,9.15234375 C30.2275391,8.96875 29.9873047,8.70605469 29.8212891,8.36425781 C29.6552734,8.02246094 29.5722656,7.61328125 29.5722656,7.13671875 C29.5722656,6.7890625 29.6083984,6.40917969 29.6806641,5.99707031 C29.7529297,5.58496094 29.8681641,5.17675781 30.0263672,4.77246094 C30.1845703,4.36816406 30.390625,3.99902344 30.6445312,3.66503906 C30.8984375,3.33105469 31.2060547,3.0625 31.5673828,2.859375 C31.9287109,2.65625 32.3515625,2.5546875 32.8359375,2.5546875 C33.2695312,2.5546875 33.6396484,2.64941406 33.9462891,2.83886719 C34.2529297,3.02832031 34.4882812,3.29394531 34.6523438,3.63574219 C34.8164062,3.97753906 34.8984375,4.38085938 34.8984375,4.84570312 C34.8984375,5.22070312 34.8603516,5.61816406 34.7841797,6.03808594 C34.7080078,6.45800781 34.5898438,6.86816406 34.4296875,7.26855469 C34.2695312,7.66894531 34.0625,8.03222656 33.8085938,8.35839844 C33.5546875,8.68457031 33.2509766,8.94433594 32.8974609,9.13769531 C32.5439453,9.33105469 32.1347656,9.42773438 31.6699219,9.42773438 Z M31.8984375,7.81054688 C32.0234375,7.81054688 32.140625,7.74023438 32.25,7.59960938 C32.359375,7.45898438 32.4580078,7.27441406 32.5458984,7.04589844 C32.6337891,6.81738281 32.7089844,6.56933594 32.7714844,6.30175781 C32.8339844,6.03417969 32.8818359,5.77246094 32.9150391,5.51660156 C32.9482422,5.26074219 32.9648438,5.03710938 32.9648438,4.84570312 C32.9648438,4.69726562 32.9521484,4.57324219 32.9267578,4.47363281 C32.9013672,4.37402344 32.8613281,4.29882812 32.8066406,4.24804688 C32.7519531,4.19726562 32.6777344,4.171875 32.5839844,4.171875 C32.4511719,4.171875 32.3291016,4.2421875 32.2177734,4.3828125 C32.1064453,4.5234375 32.0068359,4.70800781 31.9189453,4.93652344 C31.8310547,5.16503906 31.7558594,5.41308594 31.6933594,5.68066406 C31.6308594,5.94824219 31.5839844,6.2109375 31.5527344,6.46875 C31.5214844,6.7265625 31.5058594,6.953125 31.5058594,7.1484375 C31.5058594,7.359375 31.5371094,7.52246094 31.5996094,7.63769531 C31.6621094,7.75292969 31.7617188,7.81054688 31.8984375,7.81054688 Z"></path>
      <path d="M35.7011719,9.31054688 L35.8710938,2.671875 L37.7578125,2.671875 L37.6230469,4.75195312 C37.6074219,5.00195312 37.5859375,5.24902344 37.5585938,5.49316406 C37.53125,5.73730469 37.5058594,5.97070312 37.4824219,6.19335938 L37.5175781,6.19335938 C37.5527344,6.07226562 37.5927734,5.93945312 37.6376953,5.79492188 C37.6826172,5.65039062 37.7314453,5.5 37.7841797,5.34375 C37.8369141,5.1875 37.890625,5.03320312 37.9453125,4.88085938 L38.765625,2.671875 L40.9453125,2.671875 L40.8046875,4.91601562 C40.7890625,5.17382812 40.7695312,5.42089844 40.7460938,5.65722656 C40.7226562,5.89355469 40.7011719,6.11523438 40.6816406,6.32226562 L40.7167969,6.32226562 C40.7675781,6.15820312 40.8203125,5.98632812 40.875,5.80664062 C40.9296875,5.62695312 40.9863281,5.44726562 41.0449219,5.26757812 C41.1035156,5.08789062 41.1621094,4.91601562 41.2207031,4.75195312 L41.9824219,2.671875 L43.8984375,2.671875 L41.2207031,9.31054688 L39.0175781,9.31054688 L39.2167969,6.32226562 C39.2285156,6.20117188 39.2392578,6.08105469 39.2490234,5.96191406 C39.2587891,5.84277344 39.2685547,5.72265625 39.2783203,5.6015625 C39.2880859,5.48046875 39.296875,5.36132812 39.3046875,5.24414062 L39.2695312,5.24414062 C39.234375,5.35351562 39.1992188,5.45996094 39.1640625,5.56347656 C39.1289062,5.66699219 39.0947266,5.76855469 39.0615234,5.86816406 C39.0283203,5.96777344 38.9921875,6.0703125 38.953125,6.17578125 L37.8164062,9.31054688 L35.7011719,9.31054688 Z" id="路径"></path>
    </g>
  </g>
</svg>
